# xmcd CD database file
#
# Track frame offsets:
#	150
#	18202
#	25007
#	45155
#	61127
#	78002
#	86755
#	104597
#	111272
#	130975
#	151640
#	184547
#	199980
#	219032
#
# Disc length: 3080 seconds
#
# Revision: 2
# Processed by: cddbd v1.4PL0 Copyright (c) Steve Scherf et al.
# Submitted via: CDex 1.50
#
DISCID=a00c060e
DTITLE=Harry Manx and Kevin Breit - Jubilee
DYEAR=2003
DGENRE=Jazz
TTITLE0=Diving Duck Blues
TTITLE1=When Abbott Met Costello
TTITLE2=Good Time Charlie's Got the Blues
TTITLE3=No Particular Place to Be - Itchy Knees and Elbows
TTITLE4=Take This Hammer
TTITLE5=Curly Ray and his Brother
TTITLE6=Funny Business
TTITLE7=Raga Gujari-Jodi
TTITLE8=Unmoved by Love
TTITLE9=Taking It to the Streets
TTITLE10=Weary and You Run
TTITLE11=Tell Me About the Blues Highway, Grampa
TTITLE12=Voodoo Child (Slight Return)
TTITLE13=Lastly Tender
EXTD=YEAR: 2003
EXTT0=
EXTT1=
EXTT2=
EXTT3=
EXTT4=
EXTT5=
EXTT6=
EXTT7=
EXTT8=
EXTT9=
EXTT10=
EXTT11=
EXTT12=
EXTT13=
PLAYORDER=
